<?xml version="1.0" standalone="no"?>
<!DOCTYPE svg PUBLIC "-//W3C//DTD SVG 20010904//EN"
 "http://www.w3.org/TR/2001/REC-SVG-20010904/DTD/svg10.dtd">
<svg version="1.0" xmlns="http://www.w3.org/2000/svg"
 width="80.000000pt" height="80.000000pt" viewBox="0 0 80.000000 80.000000"
 preserveAspectRatio="xMidYMid meet">
<metadata>
Created by potrace 1.14, written by Peter Selinger 2001-2017
</metadata>
<g transform="translate(0.000000,80.000000) scale(0.100000,-0.100000)"
fill="#000000" stroke="none">
<path d="M153 609 c-7 -18 -10 -36 -6 -42 3 -6 1 -7 -4 -4 -9 6 -23 -12 -23
-29 0 -2 124 -4 275 -4 239 0 274 2 269 15 -4 8 -11 12 -17 8 -5 -3 -7 -1 -3
5 3 6 -1 27 -11 46 l-17 36 -226 0 -226 0 -11 -31z"/>
<path d="M110 506 c0 -2 12 -29 26 -60 l25 -56 53 0 52 0 27 55 c15 31 27 58
27 60 0 3 -47 5 -105 5 -58 0 -105 -2 -105 -4z"/>
<path d="M351 498 c-12 -4 -19 -12 -16 -18 3 -5 2 -10 -3 -10 -4 0 -16 -16
-25 -35 l-17 -35 100 0 99 0 -24 52 c-22 48 -27 52 -58 53 -19 1 -44 -2 -56
-7z"/>
<path d="M490 450 l30 -60 50 0 c50 0 50 0 75 50 14 27 25 54 25 60 0 6 -39
10 -105 10 l-105 0 30 -60z"/>
<path d="M137 325 c-15 -31 -27 -58 -27 -60 0 -3 126 -5 280 -5 154 0 280 3
280 8 0 4 -10 31 -22 59 l-23 53 -230 0 -231 0 -27 -55z"/>
<path d="M110 246 c0 -2 11 -29 25 -60 l25 -56 53 0 53 0 27 55 c15 31 27 58
27 60 0 3 -47 5 -105 5 -58 0 -105 -2 -105 -4z"/>
<path d="M470 241 c0 -4 10 -31 21 -60 l22 -51 56 0 56 0 23 53 c12 28 22 55
22 60 0 4 -45 7 -100 7 -55 0 -100 -4 -100 -9z"/>
<path d="M317 185 l-27 -55 101 0 c55 0 99 4 97 8 -1 4 -12 29 -23 55 l-20 47
-50 0 -51 0 -27 -55z"/>
</g>
</svg>
